<?xml version="1.0" encoding="UTF-8"?><svg id="Layer_1" xmlns="http://www.w3.org/2000/svg" viewBox="0 0 2048 2048"><defs><style>.cls-1{fill:beige;}.cls-1,.cls-2{stroke:#000;stroke-miterlimit:10;}.cls-2{fill:#36454f;}</style></defs><rect class="cls-1" x="-.02" y=".55" width="2048" height="2048"/><path class="cls-2" d="M777.43,877.26c.54-2.18,5.16-.31,6.79.22,31.8,10.29,44.67,47.64,26.21,75.27l8-5.49c50.77-93.42,89.97-192.74,137.14-287.86,3.78-7.61,12.81-30.26,19.36-11.65,11.89,49.61,26.78,98.41,37.39,148.33l-50.89,40.67-23.77-93.74-2.23-1.27-93.01,197c1.03,1.02,20.04-11.38,22.52-12.97,59.5-38.43,108.61-92.3,165.49-134.51,2.46-4.6,3.96-10.63,2.77-15.8-.67-2.89-7.96-10.49-9.98-15.02-6.41-14.39-2.85-37.03,4.98-50.4,3.86-6.6,12.77,7.65,15.01,11.41,7.02,11.74,10,22.75,6.7,36.31-2.44,10.01-9.69,16.33-9.5,26.99l40.32-22.17c54.48-29.83,172.15-29.58,180.55,50.8,2.83,27.07-11.48,60.8-43.27,57.27-7.96-.89-24.59-9.4-19.2-18.98,3.88-3.15,6.72,2.31,9.9,4.28,16.21,10.1,34.28-2.79,39.42-18.97,5.71-17.98-1.71-39.85-13.7-53.75-24.88-28.84-73.57-29.58-108.04-21.98-30.86,6.81-93.24,34.72-105.47,65.53-5.29,13.34-.52,15.33,2.74,27.22,6.9,25.14-.74,41.46-18.83,58.72-1.77.4-2.71-2.44-3.31-3.59-10.63-20.53-10.06-41.28,3.89-59.85,1.41-1.88,5.23-4.38,5.77-6.23,1.61-5.49-.8-15.33,4.2-20.8.22-.67-.95-.73-1.48-.49-2.99,1.37-9.49,8.97-12.5,11.51-43.47,36.63-86.98,78.7-135.1,108.9-6.99,4.39-34.32,17.61-37.35,21.65-.78,1.04-3.47,6.09-2.56,6.93,54.83,5,112.96,16.19,164.87-8.13l-21.93-92.35,30.05-26.51c-16.87,24.43-15.77,56.23,1.56,80.06,10.47-5.94,20.78-16.76,26.88-27.13,1.93-3.27,2.25-7.87,5.55-9.94l9.83,37.77c.45,4.09-5.39,13.01-7.8,16.75-22.21,34.45-71.58,50.57-111.02,50.97,5,4.5,12.98,11.13,19.73,12.26,7.14,1.2,18.41-1.52,26.8-.79,8.83.76,19.47,6.12,25.99,12.01,2.09,1.89,9.25,12.03,11.47,10.02l-10.9-42.33c14.4-9.18,28.69-16.97,39.32-30.74,3.42-4.43,5.68-9.86,9.57-13.91l14.93,60.41-23.93,136.59-24.93-91.56c-6.96-1.32-13.37.8-20.55.55-15.39-.54-31.27-6.77-41.48-18.52-3.39-3.9-7.22-12.59-10.07-14.93-2.66-2.19-25.96-15.77-29.19-16.81-12.53-4.05-36.1-3.42-50.27-4.73-13.63-1.25-27.29-3.12-40.84-5.07-38.44,76.47-81.62,155.53-150.21,209.03-47.27,36.87-109.32,59.95-169.95,57.03-134.02-6.46-166.99-152.31-65.42-230.4,76.82-59.06,200.33-64.04,293.45-60.63,19.1.7,39.97,5.68,58.66.74,12.46-3.29,21.43-10.94,23.58-24.09-8.58-6.77-19.01-10.89-25.22-20.68-2.2-3.47-7.57-16.81-7.57-20.43v-18ZM1036.44,767.76c13.39-13.64,7.77-35.01-3.51-47.98-9.32,16.8-8.27,32.89,3.51,47.98ZM1005.44,898.76c2.2,1.62,9.12-10.47,10-12.48,5.31-12.09,2.93-23.25-.02-35.51-14.07,12.64-15.96,30.73-9.98,48ZM811.42,926.76c-.1-17.51-9.48-33.53-25.98-39.99-.48,18.2,8.54,33.89,25.98,39.99ZM800.43,981.77c-12.48-1.11-25.01-3.12-37.51-4-102.64-7.22-268.72-4.8-342,78.98-54.39,62.19-32.23,152.88,50.31,172.72,73.92,17.77,150.86-20.51,203.22-70.19,52.6-49.91,91.52-114.27,125.99-177.5ZM971.93,1011.76c-6.25-.84-14.06.62-20.5,0,1.67,7.09,10.43,15.18,16.69,18.81,9.98,5.78,22.02,6.49,33.3,6.19-3.17-11.23-17.89-23.44-29.49-24.99Z"/><path class="cls-2" d="M1188.71,932.48c-3.07-3.08-2.62-9.54,1.41-11.53,33.22.13,64.89-3.57,94.33-19.67,66.88-36.56,94.16-133.02,63.16-201.2-28.58-62.84-95.77-56.89-153.96-48.65l-1.22,1.07-16.92,83.83c-6.87-.05-13.69-.89-20.61-.62-3.44.13-8.4.68-11.95,1.05-9.97,1.03-19.91,3.14-29.5,5.99,1.54-22.68,18.31-67.82-.98-85.52-6.54-6-18.06-8.28-26.65-9.35-4.56-.57-20.77-.35-23.38-1.62s-2.73-7.44-1.5-9.52c1.98-3.37,19.62-1.76,24.05-1.95,62.05-2.58,127.17-5.23,188.92-4,72.22,1.43,136.32,31.41,150.27,108.73,23.03,127.69-111.15,205.31-223.27,196.27-2.87-.23-10.3-1.43-12.18-3.32Z"/><path class="cls-2" d="M1107.56,774.9c10.72-2.96,21.4-6.54,32.51-7.99,8.99-1.18,17.94-.72,26.86-2.23l3.37,1.66c-15.93,86.64-29.8,173.68-44.19,260.61-4.79,28.94-21.37,96.66-16.43,122.06,3.78,19.42,20.46,24.4,38.26,25.74,4.57.35,20.83-1.69,22.32,2.68,1.78,5.22-.95,9.72-6.32,10.35-20.92,2.47-47.51-1.02-69.06.94-31.13.99-62.73,3.5-93.92,4.08-4.58.08-25.23,1.05-27.05-2.03-1.25-3.52-1.04-7.71,2.78-9.24,31.15-5,57.36-5.37,68.01-39.99s13.78-78.71,19.86-114.14c14.45-84.14,29.24-168.25,42.99-252.51Z"/><path class="cls-2" d="M805.43,1418.75c14.43,3.75,18.89,17.57,16.76,31.27-4.39,28.19-44.41,22.64-64.82,23.3l-1.94-102.57c18.83,1.07,52.11-8.5,61.05,14.46,5.35,13.74.21,25.2-11.04,33.53ZM767.43,1415.76c11.61-2.15,36.25,2.43,38.93-14.56,4.08-25.83-23.81-19.94-39.94-19.44l1.01,34ZM767.43,1462.76h21.5c2.54,0,10.03-2.09,12.55-3.45,13.7-7.38,12.88-28.19-2.06-33.04-10.52-3.42-21.3-.16-31.99-.51v37Z"/><path class="cls-2" d="M1202.93,1420.76c-.54.09-1.56.99-2.34,1.17l.7,40.19c-1,3.04-9.15,1.14-11.87,1.64l-1-101c18.89,1.16,49.24-7.83,60.39,13.12,9.04,16.98-.15,36.82-17.36,43.37,2.38,4.81,27.24,41.36,24.97,43.5l-12.84-.16-24.66-41.84c-4.92.57-11.33-.78-16,0ZM1200.43,1411.76h15.5c2.51,0,9.83-1.52,12.48-2.52,13.38-5.06,16.15-23.97,5.04-33-8.54-6.94-22.83-3.93-33.02-3.48v39Z"/><path class="cls-2" d="M583.54,1477.65l-11.25-28.75-43.88,1.35-11.45,28.55-11.52.97c6.23-20.05,14.49-39.57,22.53-58.96,5.56-13.4,11.99-32.19,18.59-44.41,1.73-3.2,3.44-7,6.08-2.33,17.01,30.03,27.33,68.18,42.61,99.45,1.5,6.52-7.36,3.88-11.7,4.14ZM567.42,1438.76l-17.99-43.99-17.01,44.99,34.99-1Z"/><path class="cls-2" d="M957.43,1468.76c-3.14-.13-10.26,2.7-12.51,0-2.46-2.94-9.34-27.03-10.63-27.87l-43.25.8-11.1,29.07-11.51.98,42.12-105.85c4.06-2.49,6.84,5.6,8.05,8.19,10.75,22.91,20.76,48.16,30.29,71.71,3.04,7.51,6.26,15.18,8.54,22.96ZM913.41,1387.76c-2.55-.41-1.55.22-2.08,1.4-6.2,13.76-9.73,29.98-16.9,43.59l36-1-17.01-43.99Z"/><path class="cls-2" d="M1562.43,1400.76v10.01s-42.01.99-42.01.99l.26,34.55c.58,3.24,9.92.48,12.2.42l36.54-.96v11.01s-59,1-59,1l-1-101.01,57.01-1-.94,10.57-45.06,1.44v33h42Z"/><path class="cls-2" d="M1085.93,1426.76l-1.26,1.46.8,36.88c-.51,2.19-9.13,1.66-11.05,1.67l-1-102h40.5c6.4,0,16.03,7.19,19.32,12.68,12.18,20.34-1.81,49.32-26.32,49.32h-21ZM1085.43,1416.76h19.5c3.28,0,10.22-2.92,13-5,9.23-6.92,10.73-24.01,1.85-31.85-1.26-1.11-8.7-5.15-9.85-5.15h-25.5l1,42Z"/><path class="cls-2" d="M1415.44,1438.75l30.22-80.75c1.35-1.59,9.32-1.98,11.34-.29,1.09,1.47-1.14,6.42-1.81,8.32-4.1,11.56-8.84,23.25-13.28,34.72-6.25,16.18-15.56,44.26-23.74,58.26-.62,1.07-1.21,2.01-2.25,2.74-2.24-.01-10.47-19.61-11.97-23.01-11.3-25.7-20.71-52.27-32.09-77.94-1.85-4.59,10.84-3.52,12.06-2.03l31.5,80Z"/><path class="cls-2" d="M659.42,1464.77l47.01-1.01c-.45,2.6,1.33,9.89-1.64,10.87l-57.37,1.14-1.03-100.51c.27-4.07,7.48-1.73,10.45-3.38,1.6.63,1.48,1.96,1.63,3.34,2.1,19.27-1.63,42.39-.09,62.09l1.04,27.46Z"/><polygon class="cls-2" points="1320.43 1461.77 1309.42 1461.77 1308.44 1359.77 1318.5 1359.19 1320.43 1461.77"/><path class="cls-2" d="M1530.43,1348.76c-1.33-1.27,11.49-20.77,12.99-21.5,1.95-.95,14-1.11,13.99,1.01-2.85,3.88-22.75,24.54-26.98,20.5Z"/></svg>