<?xml version="1.0" encoding="UTF-8"?><svg id="Layer_1" xmlns="http://www.w3.org/2000/svg" viewBox="0 0 2048 2048"><defs><style>.cls-1{fill:beige;}.cls-1,.cls-2{stroke:#000;stroke-miterlimit:10;}.cls-3{fill:#424242;}.cls-2{fill:#36454f;}</style></defs><rect class="cls-1" x=".49" y="-.42" width="2045.65" height="2045.65"/><path class="cls-2" d="M1100.38,956.88v143c-1.84-.56-2.42-2.79-3.18-4.32-22.92-46-37.75-99.46-61.35-145.65l.63-15.94c20.87-3.58,41.69-8.09,61.33-16.07,4.66,11.3,9.07,21.54,17.05,30.98,34.79,41.12,103.14,44.78,148.18,19.16,94.11-53.52,95.26-227.25,8.64-287.99-50.02-35.08-113.71-22.88-171.31-25.19v219.5c-5.44,5.23-12.83,9.16-19.64,12.36-8.51,4-22.43,7.44-29.7,12.3-3.82,2.55-6.59,8.54-10.66,11.34,7.33-.29,15.91-2.02,23.18-3.82,9.71-2.4,19.92-5.64,28.86-10.14,14.23-7.17,30.72-16.8,32.87-34.13.84-6.8-2.38-11.39-2.95-17.88-2.15-24.38,8.42-41.59,26.54-56.51,9.47,22.03,9.9,47.67-9.59,64.39-1.77,1.52-6.71,3.71-7.61,4.89s-5.89,16.05-5.3,16.69l23.99-15.5c7.21-11.45,11.11-23.19,21.48-32.52,14.27-12.84,30.51-15.44,48.52-19.97-2.06,23.77-17,47.24-41.21,53.28-8.14,2.03-20.82,1.32-27.18,3.82-4.05,1.59-10.96,7.31-14.92,10.08-10.65,7.45-20.16,16.74-31.68,22.83-.25,1.78,2.22.96,3.26.76,7.48-1.45,15.71-5.81,23.34-6.66,19.6-2.2,34.82,6.3,52.7,12.09.94.54,1.98.9,1.68,2.28-.65,3.01-20.89,13.87-24.73,15.29-16.94,6.25-33.71,4.05-48.59-5.93-4.91-3.3-9.8-10.36-16.05-9.79-5.74.53-20.22,7.63-27.41,9.67-16.02,4.55-32.8,6.34-48.73,11.27-62.38,19.3-97.51,84.17-93.47,147.51.5,7.83,2.82,15.67,2.99,23.5-2.48,2.89-5.44-10.81-5.68-11.81-15.08-63.68,18.3-135.49,78.33-162.04,15.56-6.88,26.06-5.91,37.87-20.13,1.03-1.24,5.09-6.54,5.48-7.53,1.19-3-7.26-.75-7.99-1.48-.16-3.47.26-7.02,0-10.49-4.58-60.67,2.97-124.7-.94-185.06-1.45-22.38-13.38-38.71-35.05-44.95-7.3-2.1-14.46-2.57-21.94-3.56v-6.9c4.6-1.76,8.31-.07,12.41,0,75.56,1.17,152.97-3.61,228.03-.04,94.83,4.52,173.22,57.96,182.5,157.5,8.46,90.75-43.07,167.42-130.77,191.2-58.04,15.74-129.46,13.94-172.22-33.72ZM1134.39,848.88c15.73-12.13,16.75-31.07,11.98-49-12.7,9.42-19.69,24.76-19.03,40.54.07,1.67.4,6.57,2.02,7.45,3.53-7.34,5.15-17.38,9.41-24.12.83-1.31.11-2.39,2.6-1.86l-6.99,26.99ZM1212.38,814.88c-21.94,1.9-42.89,14.96-50.99,35.99l30.51-19.99,1.47,1.47-30.99,23.5c24.5-.28,45.67-16.63,49.99-40.98ZM1052.38,870.38c-.45,4.63.32,9.8,0,14.5,7.28-2.29,22.19-38.82,24.5-38.98,1.93-.13.98,2.79.79,3.76-2.69,13.88-14.84,29.39-22.29,41.21,21.86-6.22,34.78-28.46,35.9-50.38l-2.91-20.6c-18.5,11.4-33.8,27.85-35.99,50.5ZM1173.38,904.89c-15.56-6.11-33.17-13.22-49.77-6.28-1.24.52-2.95.54-3.23,2.26,6.27,1.1,17.71,1.08,23.3,3.21,1.37.52,1.98,1.3,1.7,2.79-11.52.98-22.64-1.81-33.99-2.98,16.1,17.39,44.89,16.39,62,1Z"/><path class="cls-2" d="M615.38,1122.88l.05-8.95c40.2-1.55,60.88-33.54,76.12-66.37l151.66-362.43c.53-3.06-3.06-8.95-4.67-11.92-8.96-16.6-25.68-35.03-46.18-33.32l.14-5.37c.83-2.51,17.25-5.1,20.49-5.51,44.19-5.59,80.4,10.89,98.23,52.51l95.14,225.34c-14.1,4.99-27.61,12.97-39.47,22.04-3.86,2.95-9.08,9.05-13.01,11.01-.96.48-.78,1.66-2.02-.04l-100.49-238.99-101,245.99c20.19-17.07,44.72-28.19,70.8-32.69,44.5-7.66,92.82-.14,129.93,26.42.53.38,1.93.02,1.24,1.73-.41,1.01-12.32,14.54-13.29,14.39-54.27-43.57-141.12-41.26-188.2,12.12-18.72,21.23-35.37,60.31-42.2,87.8-9.1,36.59,12.93,55.28,47.66,57.27-.08,2.98,1.09,6.86-1.44,8.95h-139.5Z"/><path class="cls-2" d="M1180.38,1174.88l-.61,6.11c-43.05,19.09-87.87,8.68-122.4-21.59-50.44-44.22-55.68-121.42-93.87-174.23-.57-2.21,6.48-10.15,8.37-12.3,9.98-11.32,21.53-20.98,34.84-28.16,1.73-.93,9.41-5.35,10.72-4.41l64.78,154.26c11.4,23.21,24.71,48.39,45.85,64.15,15.08,11.25,33.23,19.11,52.33,16.17Z"/><path class="cls-2" d="M1038.38,1159.88l16.52,14.98c14.15,10.29,29.22,19.68,46.38,24.12.41,13.33,1.1,26.16,9.27,37.23,10.78,14.62,29.94,17.19,46.85,18.25v7.43c-14.86.64-29.61,1.09-44.56,1.04-37.8-.13-79.5,1.07-116.92-1.08-4.48-.26-9.07.27-13.55.05v-8.01c21.92,1.29,44.72-6.98,52.48-29.02,1.35-3.83,3.52-13.73,3.52-17.48v-47.5Z"/><path class="cls-3" d="M790.88,1422.88c18.13,2.44,28.16,20.41,17.03,36.03l-7.52,5.96c20.04,3.7,21.84,31.9,4.37,40.89-2.45,1.26-11.51,4.12-13.88,4.12h-44.5v-87c13.86,1.34,31.05-1.81,44.5,0ZM757.38,1460.88h30.5c6.42,0,13.36-6.93,13.59-13.49.23-6.73-5.92-14.51-12.59-14.51h-31.5v28ZM757.38,1499.88h32.5c1.46,0,8.96-2.5,10.46-3.54,5.49-3.81,6.61-12.73,3.46-18.38-1.27-2.28-7.52-7.08-9.92-7.08h-36.5v29Z"/><path class="cls-2" d="M1223.88,1422.88c29.71,3.54,34.69,41.63,10.05,52.05-1.69.71-6.44.37-5.54,2.44l22.99,32.51-13.71-1.28-21.78-30.72h-23.5v32h-11v-87c13.43,1.16,29.38-1.56,42.5,0ZM1223.88,1432.88c-9.46-1.33-21.72.99-31.5,0v35h31.5c1.06,0,9.08-4.25,10.16-5.34,9.44-9.45,3.67-27.71-10.16-29.66Z"/><path class="cls-2" d="M1563.38,1432.88h-50v24.5c0,.5-1.58,2.1-1,3.5h47v10h-47c1.23,8.96,1.75,18.53.24,27.54l1.26,1.46h50.5c.29,1.65,2.27,10-.5,10h-61.5v-87h59.5l1.29,1.62.21,8.38Z"/><path class="cls-2" d="M911.27,1422.99l37.11,86.88-11.01-.48-8.89-19.89-46.47-.48-9.12,19.88-11.51.98,37.1-85.39c2.38-3.05,9.07-1.22,12.78-1.49ZM923.38,1478.88l-18.5-44.01-18.5,44.01h37Z"/><path class="cls-2" d="M552.22,1423.04l38.16,86.83-11.84-.16c-1.34-.84-6.12-16.5-8.26-19.24-1.21-1.54-1.5-1.44-3.34-1.66-13.15-1.53-29.43,1.14-42.92.19l-9.12,19.88-11.51.98,36.49-86,12.34-.83ZM565.38,1478.88l-19.99-44-18.01,44h38Z"/><path class="cls-2" d="M1073.38,1479.88v30h-11v-87h42.5c.63,0,7,2.28,8.19,2.81,24.68,10.93,20.55,48.38-5.84,53.55-4.73.93-14.32,1.59-19.31,1.68s-9.6-.54-14.55-1.04ZM1073.38,1470.88h25.5c.41,0,6.45-1.39,7.32-1.68,13.79-4.56,16.48-25.32,4.52-33.16-.87-.57-6.4-3.16-6.84-3.16h-30.5v38Z"/><polygon class="cls-2" points="1381.27 1423 1410.37 1494.88 1438.48 1422.98 1451.38 1422.88 1414.75 1509.75 1403.87 1508.89 1369.39 1422.88 1381.27 1423"/><path class="cls-3" d="M651.38,1422.88v77l46.42-.89,1.42,1.54c.28.9.15,1.88.21,2.81.16,2.24.42,5.08-1.56,6.54h-57.5v-87h11Z"/><rect class="cls-2" x="1305.38" y="1422.88" width="11" height="87"/><path class="cls-2" d="M1548.38,1399.89c-5.99,6.3-12.16,15.9-21.99,13.98l11.01-16.55c2.58-1.37,7.93,2.46,10.98,2.57Z"/></svg>