<?xml version="1.0" encoding="UTF-8"?><svg id="Layer_1" xmlns="http://www.w3.org/2000/svg" viewBox="0 0 2048 2048"><defs><style>.cls-1{fill:#424242;}.cls-2{fill:beige;}</style></defs><rect class="cls-2" x="1.08" y="4.13" width="2045.52" height="2042.12"/><path class="cls-1" d="M1157.57,896.68c2.11,2.8,7.34,2.33,11,3.49,73.81,23.38,57.78,111.76-24.46,116.55-33.16,1.93-68.2-1.53-101.55-.04l1.05-192.55-2.57-16.43-8.98-13.03c.92-1.33,2.63-.97,3.97-1.04,28.75-1.61,66.23-1.34,95.09,0,12.7.59,25.94,2.41,37.72,7.28,50.82,21.01,39.87,86.04-11.26,95.77h-.01ZM1082.57,806.67v192.5c0,4.43,11.04,5.31,14.46,5.54,42.6,2.83,81.15-6.02,76.53-57.53-3.37-37.46-44.88-47.09-75.97-40.52-.6-.75,6.25-11.69,8-12.49,3.16-1.44,11.15-.18,15.36-.64,31.05-3.38,47.31-25.83,39.97-56.71-8.86-37.23-48.54-31.68-78.34-30.16h-.01Z"/><path class="cls-1" d="M797.57,1016.67h-27.5c-14.75,0-34.69-22.44-46.6-31.4-26.54-19.94-60.04-36.74-94.38-33.59-5.51.51-17.3,3.85-20.95,8.05-2.87,3.31-7.97,17.01-10.06,21.94-4.87,11.52-8.43,23.74-14.01,34.99h-15.5l84.6-201.96c1.27-6.54-6.25-12.78-11.56-15.57-.51-.27-14.31-5.46-7.54-5.46h60c3.68,4.62,6.15,10.04,8.68,15.32,29.79,62.24,52.62,128.16,82.65,190.35l12.18,17.32h0ZM729.57,971.66l-64.49-150.99-51.5,123.99c28.56-10.75,59.57-4.69,86.35,8.15l29.64,18.85Z"/><path class="cls-1" d="M1372.07,793.67c2.26.39,6.23,7.36,7.38,9.62,27.57,54.44,49.1,117,74.95,173.05,4.03,8.74,7.9,17.98,12.66,26.34,2.72,4.79,6.91,8.92,8.52,13.98h-26.5c-15.29,0-32.81-21.3-44.6-30.4-29.63-22.85-82.76-49.69-117.43-24.63l-22.97,55.03h-14.5l83.71-205.37c-1.6-5.18-5.92-8.75-10.4-11.44-.54-.33-14.35-6.19-7.81-6.19h57,0ZM1409.57,971.66l-64.98-150.99-52.01,124.99c34.74-14.2,71.96-2.68,102.32,16.18,1.66,1.03,13.91,10.62,14.67,9.82Z"/><path class="cls-1" d="M885.57,793.67v210h56.5c10.48,0,30.42-8.65,38.51-15.49,2.13-1.8,10.08-12.45,11.98-10.51l-5.99,39h-141l-.04-12.54c-.93-58.86,4.8-122.43,1.08-181-.54-8.44-1.95-15.48-6.2-22.8-1.38-2.37-4.51-3.35-3.84-6.66h49Z"/><path class="cls-1" d="M932.07,1135.67c2.92.3,9.08,1.96,12.04,2.96,25.55,8.7,26.46,39.91,2.67,51.74-1.38.68-10.02,3.1-9.2,4.28,1.8.08,2.9,1.26,3.99,2.52,8.42,9.76,14.34,23.22,23.04,32.96,2.85,3.19,6.53,5.05,8.97,8.53h-17.5c-.67,0-6.4-2.85-7.44-3.56-7.67-5.26-23.33-38.44-28.56-38.44h-14.5v42h-17c-.68-23.45.89-47.1.04-70.54-.09-2.36-.95-4.55-1.08-6.92-.52-9.43,1.82-17.48-4.96-25.54,15.86,1.17,33.91-1.58,49.5,0h-.01ZM905.57,1191.67c11.64-1.57,25.2.91,34.49-8.01,10.56-10.13,7.57-33.41-6.25-39.74-.84-.39-6.39-2.26-6.74-2.26h-21.5v50h0Z"/><path class="cls-1" d="M785.57,1193.67h17.5c12.85,0,21.49-14.94,21.49-26.5,0-9.95-8.35-25.5-19.49-25.5h-22.5l-1,97h-17l-.05-60.46c-1.48-14.06,4.54-31.36-5.95-42.54h52.5c2.53,0,13.18,3.73,15.82,5.18,22.9,12.57,20.16,45.29-4.64,55-7.82,3.06-26.09,5.32-34.18,3.82-3.35-.62-2.49-3.26-2.5-6h0Z"/><path class="cls-1" d="M1286.57,1135.67l.99,12.99c-.68.73-15.37-5.99-18.49-5.99h-31.5v40l40-1v7h-40v44h24.5c1.62,0,10.1-2.09,12.28-2.72,5.84-1.69,10.38-5.2,16.22-6.27-1.25,3.19-1.37,15.03-4.68,15.92-1.12.52-2.4-.92-2.82-.92h-63.5v-94.5c0-2.12-3.91-6.08-4-8.5h71Z"/><path class="cls-1" d="M1090.07,1135.67c2.82.57,8.18,5.68,9.7,8.3,12.44,21.35,20.33,53.55,31.35,76.69.56,1.17-.15,2.45,1.93,2.02l33.61-86.91,8.9-.09-41.08,101.41c-2.2,3.03-10.18,1.22-13.75,1.42-12.81-27.25-22.27-56.21-34.99-83.51-3.15-6.77-6.09-13.79-11.17-19.33,4.61.63,11.21-.86,15.5,0h0Z"/><polygon class="cls-1" points="1032.57 1135.67 1031.07 1238.67 1014.57 1238.67 1014.57 1135.67 1032.57 1135.67"/><path class="cls-1" d="M1242.57,1128.66c3.84-4.34,8.58-7.68,12.51-11.98,3.81-4.17,6.34-12.88,13.54-10.57,3.74,1.2,5.92,4.97,4.75,8.85-1.61,5.33-24.6,14.71-30.8,13.7Z"/></svg>