<?xml version="1.0" encoding="UTF-8"?><svg id="Layer_1" xmlns="http://www.w3.org/2000/svg" viewBox="0 0 2048 2048"><defs><style>.cls-1{fill:#36454f;}.cls-2{fill:beige;stroke:#fff;stroke-miterlimit:10;}</style></defs><rect class="cls-1" x=".07" y="-.33" width="2048" height="2048"/><path class="cls-2" d="M1076.42,1040.63l1.75,60.68h-31.44c4.05-13.09,2.21-26.88,2.58-40.35.87-30.81,3.65-69.42.02-99.7-.7-5.87-2.65-10.54-6.1-15.38,14.32-1.07,28.85-1.14,43.27-.87,24.96.45,53.18-1.05,69.25,20.54,24.04,32.31-4.53,75.08-43.96,75.08h-35.37ZM1076.42,1032.32c18.99.92,39.43,4.24,52.4-12.05,11.65-14.64,11.22-47.65-4.44-59.77-3.41-2.64-13.67-7.14-17.83-7.14h-30.13v78.96Z"/><path class="cls-2" d="M1265.5,969.14c39.82,3.84,55.37,46.29,18.96,66.25l-15.9,5.22c18.4,2.82,23.98,25.19,32.16,38.8,5.26,8.75,7.71,12.93,17.23,17.69,5.8,2.9-2.29,4.58-5.4,4.92-13.57,1.49-24.5-1.5-32.49-12.09-10.53-13.97-14.92-33.83-28.53-45.99h-19.65c.79,19.1-2.11,38.65,2.62,57.35h-29.69c1.08-4.9,2.33-10.35,2.66-15.34,2.34-35.32-.62-74.67-1.52-110l-2.88-6.82h62.45ZM1231.88,1036.47h21.4c27.55,0,35.69-41.82,15.58-55.55-1.66-1.13-8.73-4.29-10.34-4.29h-27.51l.87,59.85Z"/><path class="cls-2" d="M658.08,1101.31c.24-5.71,2.25-11.31,2.66-17.01,2.32-32.65-1.84-67.74,0-100.65l-3.53-14.51c25.43,2.2,68.14-6.55,88.63,10.82,14.42,12.22,10.8,35.62-4.86,45.21-5.06,3.1-8.67,3.33-13.89,5.08-.84.28-2,.1-1.75,1.22,40.8.49,56.56,49.26,15.7,65.24-3.63,1.42-14.43,4.59-17.89,4.59h-65.07ZM684.28,1028.99h25.76c.94,0,7-2.25,8.33-2.88,20.41-9.62,15.17-49.49-8.33-49.49h-25.76v52.37ZM711.79,1035.64c-8.64-.87-18.71.64-27.51,0l.87,58.19c19.46-.26,45.21,5.44,53.04-17.27,6.67-19.35-4.54-38.72-26.4-40.92Z"/><path class="cls-2" d="M404.7,944.31l56.72,131.79c2.84,4.88,5.09,10.64,8.53,15.15,2.96,3.87,6.11,5.33,9.08,8.8-.71,2.9-14.96,2.29-17.89,2.08-28.48-2.1-25.53-25.58-37.71-43.91l-68.43.27-18.75,42-11.8.82,60.75-133.81-5.7-14.94c4.63.11,22.6-9.85,25.2-8.25ZM358.51,1050.6h62.01l-30.14-72.32-31.87,72.32Z"/><path class="cls-2" d="M1719.21,969.14l3.49,20.78-12.19-8.75c-3.16-1.64-11.99-4.54-15.31-4.54h-44.98l.87,54.03,54.15-.83-.87,9.14h-54.15c-.23.61.87.99.87,1.25v53.61c9.15-.26,18.39.34,27.55.03,12.34-.41,26.65-.26,37.01-7.17,2.84-1.89,4.61-5.76,8.8-5.33l-2.82,18.92-2.15.82c-31.4.62-63.27-.06-94.37.02-1.12,0-1.27-.27-1.93-1.05,1.81-4.53,2.8-9.45,3.35-14.25,2.94-25.64,2.2-62.71,1.02-88.87-.2-4.54-.53-11.21-1.14-15.54-.6-4.26-2.98-8.18-4.14-12.27h96.94Z"/><path class="cls-2" d="M930.38,1098.14c.47.77.56,2.63-.33,3.25-2.43,1.7-18.62.32-22.25-.45-16.86-3.59-18.36-26.89-25.83-38.59l-56.73-.2-17.07,39.04-11.23.1c19.2-36.55,34.52-74.86,51.98-112.2,2.17-5.35-3.82-9.12-3.94-14.13,3.34-.35,6.55-1.66,9.58-2.94s10.02-6.05,12.7-3.72l50.93,115.28c2.02,3.35,3.54,7.79,6.27,10.65,1.47,1.54,5.74,3.61,5.92,3.91ZM828.38,1054.76h50.66l-25.76-58.19-24.9,58.19Z"/><path class="cls-2" d="M1461.14,969.14c8.27.98,13.56,6.05,17.36,12.57,15.78,27.06,25.83,65.83,39.8,95.11.39.82.58,1.95,1.78,2.03l45.22-107.84c1.85-3.46,7.28-1.36,10.68-1.88l-49.82,115.08c-.33,6.87-1.24,8.99-6.94,13.35-4.2,3.21-15.55,9.31-17.63,1.8-16.47-36.3-28.78-77.1-46.86-112.5-1.68-3.29-4.06-8.53-6.8-10.98-2.35-2.11-5.25-2.42-7.32-4.67l1.31-2.07c6.09.52,13.29-.7,19.21,0Z"/><path class="cls-2" d="M545.41,969.14c-3.43,40.45-1,81.22-1.79,121.81l1.35,2.87h40.17c7.05,0,18.06-3.95,23.17-8.7,1.52-1.41,5.97-8.9,7.83-7.09l-1.74,23.27h-96.94c.71-5.88,2.28-11.92,2.66-17.84,2.15-33.95-.67-71.22-1.3-105.22l-3.1-9.1h29.69Z"/><path class="cls-2" d="M1396.94,969.14c-1.01,4.17-2.33,8.55-2.65,12.85-1.95,25.6-.85,56.55.07,82.29.45,12.43-1.22,25.13,3.46,37.02h-29.69c-.07-4.18,1.51-8.82,1.74-12.89,1.4-24.68.52-49.3-.03-73.93-.33-14.99,1.97-31.02-2.58-45.34h29.69Z"/><path class="cls-2" d="M1688.48,920.45c4.92-.3,18.04,3.24,14.2,9.4-1.55,2.49-22.41,14.18-26.55,16.32-1.98,1.02-4.26,2.51-6.11,3.33-2.03.9-10.71,4.99-10.12,1.2,6.15-5.05,16.04-26.4,22.13-28.83,1.3-.52,5.05-1.33,6.45-1.41Z"/></svg>